<svg xmlns="http://www.w3.org/2000/svg" width="32" height="32" viewBox="0 0 32 32">
    <path fill="#FFF" fill-rule="evenodd" d="M0 16C0 7.163 7.163 0 16 0s16 7.163 16 16-7.163 16-16 16S0 24.837 0 16zm11.307-2.748H7.681v10.894h3.626V13.252zm.239-3.37C11.522 8.814 10.758 8 9.518 8s-2.051.814-2.051 1.882c0 1.046.787 1.883 2.004 1.883h.023c1.264 0 2.052-.837 2.052-1.883zM24.384 17.9c0-3.346-1.79-4.904-4.175-4.904-1.925 0-2.787 1.057-3.269 1.8v-1.544h-3.626c.048 1.022 0 10.895 0 10.895h3.626v-6.085c0-.325.024-.65.12-.883.262-.65.859-1.324 1.86-1.324 1.313 0 1.838.999 1.838 2.463v5.828h3.625V17.9z"/>
</svg>
