<svg xmlns="http://www.w3.org/2000/svg" width="32" height="32" viewBox="0 0 32 32">
    <path fill="#FFF" fill-rule="nonzero" d="M16 0C7.161 0 0 7.161 0 16s7.161 16 16 16 16-7.161 16-16S24.839 0 16 0zm6.387 20.903c-1.29 0-2.387-.387-3.355-.968l-1.097 5.162H15.42L16.968 18c-.645-.903-1.29-1.935-1.742-2.903v1.097c0 2.645-2.13 4.774-4.71 4.774s-4.71-2.13-4.71-4.774V9.742h2.452v6.452a2.313 2.313 0 0 0 2.323 2.322 2.313 2.313 0 0 0 2.322-2.322V9.742h2.452a24.018 24.018 0 0 0 2.451 5.29c.646-2.451 2.452-3.935 4.71-3.935 2.645 0 4.839 2.193 4.839 4.838-.13 2.775-2.323 4.968-4.968 4.968zm0-7.42c-1.806 0-2.387 1.743-2.516 2.775v.065l-.258.967c.774.645 1.742 1.097 2.71 1.097 1.29 0 2.451-1.097 2.516-2.516 0-1.29-1.097-2.387-2.452-2.387z"/>
</svg>
