<?xml version="1.0" encoding="UTF-8"?>
<svg width="30px" height="30px" viewBox="0 0 30 30" version="1.1" xmlns="http://www.w3.org/2000/svg" xmlns:xlink="http://www.w3.org/1999/xlink">
    <g id="Page-1" stroke="none" stroke-width="1" fill="none" fill-rule="evenodd">
        <g id="iPad" transform="translate(-432.000000, -697.000000)" fill="#FFFFFF">
            <g id="Group">
                <g id="соцсети" transform="translate(50.000000, 697.000000)">
                    <g id="gitlab" transform="translate(382.000000, 0.000000)">
                        <path d="M15,30 C6.71572875,30 0,23.2842712 0,15 C0,6.71572875 6.71572875,0 15,0 C23.2842712,0 30,6.71572875 30,15 C30,23.2842712 23.2842712,30 15,30 Z M23.976428,16.3687659 L23.032298,13.467876 C23.0272931,13.4411642 23.0196444,13.4150162 23.0094647,13.389818 L21.1153637,7.55936399 C21.0118592,7.250807 20.7218275,7.04367208 20.3963805,7.04588047 C20.0716197,7.04391124 19.783504,7.25386105 19.6858935,7.56361204 L17.8804706,13.1195356 L12.1822372,13.1195356 L10.3741593,7.56361204 C10.276898,7.25498819 9.9904446,7.04530945 9.66685827,7.04588047 L9.66261022,7.04588047 C9.33688708,7.04593714 9.04791181,7.25485555 8.94575111,7.56414305 L7.05005704,13.4015002 C7.05005704,13.4068103 7.04580898,13.4110583 7.04421596,13.4163684 L6.08309376,16.3692969 C5.93820139,16.8136034 6.09626364,17.3006582 6.47444573,17.5752132 L14.7783292,23.6090428 C14.9283035,23.7176013 15.1313134,23.7165272 15.2801306,23.6063878 L23.585607,17.5752132 C23.9639668,17.3005451 24.1218666,16.8131152 23.976428,16.3687659 Z M11.5641454,13.9723324 L13.8788038,21.0963189 L8.3223492,13.9723324 L11.5641454,13.9723324 Z M16.183904,21.0979119 L18.4035122,14.2681032 L18.4990934,13.9723324 L21.7435446,13.9723324 L16.7165038,20.4123822 L16.183904,21.0979119 Z M20.4038146,8.11054899 L22.0302883,13.1195356 L18.7746859,13.1195356 L20.4038146,8.11054899 Z M17.6048781,13.9691464 L15.9922106,18.9319354 L15.0300264,21.887519 L12.4588917,13.9691464 L17.6048781,13.9691464 Z M9.65889317,8.11054899 L11.2885529,13.1195356 L8.03507455,13.1195356 L9.65889317,8.11054899 Z M6.97412307,16.8880905 C6.89376086,16.8296465 6.86029272,16.726024 6.89128602,16.6316142 L7.60495909,14.4385564 L12.8390926,21.1488886 L6.97412307,16.8880905 Z M23.0864607,16.8880905 L17.2209602,21.1472956 L17.2406075,21.1218072 L22.4550937,14.4385564 L23.1687667,16.6305522 C23.2001306,16.7250044 23.1668587,16.8288987 23.0864607,16.8875595 L23.0864607,16.8880905 Z" id="Combined-Shape"></path>
                    </g>
                </g>
            </g>
        </g>
    </g>
</svg>