<?xml version="1.0" encoding="UTF-8"?>
<svg width="30px" height="30px" viewBox="0 0 30 30" version="1.1" xmlns="http://www.w3.org/2000/svg" xmlns:xlink="http://www.w3.org/1999/xlink">
    <!-- Generator: Sketch 52.5 (67469) - http://www.bohemiancoding.com/sketch -->
    <title>Telegram_White</title>
    <desc>Created with Sketch.</desc>
    <g id="Page-1" stroke="none" stroke-width="1" fill="none" fill-rule="evenodd">
        <g id="iPad" transform="translate(-324.000000, -697.000000)" fill="#FFFFFF">
            <g id="Group">
                <g id="соцсети" transform="translate(50.000000, 697.000000)">
                    <g id="Telegram" transform="translate(274.000000, 0.000000)">
                        <path d="M12.50525,18.050875 L12.25,21.875 C12.625,21.875 12.7906875,21.7035 13,21.5 L14.8016941,19.7480777 L18.55,22.517375 C19.2398125,22.8979875 19.737675,22.700925 19.9095,21.8769375 L22.370125,10.2815625 C22.62205,9.2715375 21.9851125,8.8134375 21.3252,9.1130375 L6.87645,14.6844125 C5.8901875,15.08 5.8959375,15.6302375 6.696675,15.8754125 L10.40455,17.0327 L18.988675,11.617075 C19.3939125,11.3713375 19.7658375,11.5034513 19.460575,11.774375 L12.5053492,18.0509348 Z M15,30 C6.71572875,30 0,23.2842712 0,15 C0,6.71572875 6.71572875,0 15,0 C23.2842712,0 30,6.71572875 30,15 C30,23.2842712 23.2842712,30 15,30 Z" id="Combined-Shape"></path>
                    </g>
                </g>
            </g>
        </g>
    </g>
</svg>