<?xml version="1.0" encoding="UTF-8"?>
<svg width="32px" height="32px" viewBox="0 0 32 32" version="1.1" xmlns="http://www.w3.org/2000/svg" xmlns:xlink="http://www.w3.org/1999/xlink">
    <!-- Generator: Sketch 52.5 (67469) - http://www.bohemiancoding.com/sketch -->
    <title>upwork_White</title>
    <desc>Created with Sketch.</desc>
    <g id="Page-1" stroke="none" stroke-width="1" fill="none" fill-rule="evenodd">
        <g id="iPad" transform="translate(-214.000000, -697.000000)" fill="#FFFFFF" fill-rule="nonzero">
            <g id="Group">
                <g id="соцсети" transform="translate(50.000000, 697.000000)">
                    <path d="M180,0 C171.16129,0 164,7.16129032 164,16 C164,24.8387097 171.16129,32 180,32 C188.83871,32 196,24.8387097 196,16 C196,7.16129032 188.83871,0 180,0 Z M186.387097,20.9032258 C185.096774,20.9032258 184,20.516129 183.032258,19.9354839 L181.935484,25.0967742 L179.419355,25.0967742 L180.967742,18 C180.322581,17.0967742 179.677419,16.0645161 179.225806,15.0967742 L179.225806,16.1935484 C179.225806,18.8387097 177.096774,20.9677419 174.516129,20.9677419 C171.935484,20.9677419 169.806452,18.8387097 169.806452,16.1935484 L169.806452,9.74193548 L172.258065,9.74193548 L172.258065,16.1935484 C172.258065,17.483871 173.290323,18.516129 174.580645,18.516129 C175.870968,18.516129 176.903226,17.483871 176.903226,16.1935484 L176.903226,9.74193548 L179.354839,9.74193548 C179.870968,11.3548387 180.709677,13.2903226 181.806452,15.0322581 C182.451613,12.5806452 184.258065,11.0967742 186.516129,11.0967742 C189.16129,11.0967742 191.354839,13.2903226 191.354839,15.9354839 C191.225806,18.7096774 189.032258,20.9032258 186.387097,20.9032258 Z M186.387097,13.483871 C184.580645,13.483871 184,15.2258065 183.870968,16.2580645 L183.870968,16.3225806 L183.612903,17.2903226 C184.387097,17.9354839 185.354839,18.3870968 186.322581,18.3870968 C187.612903,18.3870968 188.774194,17.2903226 188.83871,15.8709677 C188.83871,14.5806452 187.741935,13.483871 186.387097,13.483871 Z" id="upwork"></path>
                </g>
            </g>
        </g>
    </g>
</svg>