<?xml version="1.0" encoding="UTF-8"?>
<svg width="30px" height="30px" viewBox="0 0 30 30" version="1.1" xmlns="http://www.w3.org/2000/svg" xmlns:xlink="http://www.w3.org/1999/xlink">
    <g id="Page-1" stroke="none" stroke-width="1" fill="none" fill-rule="evenodd">
        <g id="iPad" transform="translate(-50.000000, -698.000000)" fill="#FFFFFF">
            <g id="Group">
                <g id="соцсети" transform="translate(50.000000, 697.000000)">
                    <g id="whatsapp" transform="translate(0.000000, 1.000000)">
                        <path d="M0,15 C0,6.71572834 6.71572834,0 15,0 C23.2842717,0 30,6.71572834 30,15 C30,23.2842717 23.2842717,30 15,30 C6.71572834,30 0,23.2842717 0,15 Z M24,14.2810778 C24,9.70751111 20.2643444,6 15.6545111,6 C11.0452444,6 7.30883333,9.70751111 7.30883333,14.2810778 C7.30883333,15.8456444 7.74648889,17.3091556 8.50638889,18.5569556 L7,23 L11.6204111,21.5317667 C12.8164556,22.1881556 14.1911889,22.5621556 15.6545111,22.5621556 C20.2639667,22.5621556 24,18.8546444 24,14.2810778 Z M19.8688111,16.1882889 C19.9196222,16.2729111 19.9196222,16.6792111 19.7496222,17.1537 C19.5784889,17.6274333 18.7432222,18.0845444 18.3684667,18.1183556 C17.9933333,18.1523556 17.9933333,18.4234111 15.9134778,17.611 C13.8338111,16.7982111 12.5212222,14.6819 12.4190333,14.5466556 C12.3164667,14.4114111 11.5837667,13.4463778 11.5837667,12.4475333 C11.5837667,11.4488778 12.1120889,10.9577667 12.2994667,10.7545222 C12.4870333,10.5514667 12.7087889,10.5006556 12.8451667,10.5006556 C12.9815444,10.5006556 13.1181111,10.5176556 13.2373,10.5176556 C13.3568667,10.5176556 13.5270556,10.4500333 13.6974333,10.8561444 C13.8678111,11.2626333 14.2773222,12.2614778 14.3283222,12.3629111 C14.3797,12.4647222 14.4138889,12.5831556 14.3453222,12.7185889 C14.2775111,12.8542111 14.2435111,12.9386444 14.1409444,13.0572667 C14.0387556,13.1757 13.9261778,13.3217111 13.834,13.4127556 C13.7318111,13.5138111 13.6250889,13.6235556 13.7442778,13.8266111 C13.8636556,14.0300444 14.2743,14.6941778 14.8823333,15.2321333 C15.6637667,15.9234667 16.3228,16.1380444 16.5271778,16.2394778 C16.7319333,16.3411 16.8511222,16.3241 16.9705,16.1882889 C17.0900667,16.0528556 17.4822,15.5959333 17.6183889,15.3926889 C17.7545778,15.1896333 17.8913333,15.2236333 18.0789,15.2912556 C18.2659,15.3586889 19.2719222,15.8499889 19.4766778,15.9514222 C19.6810556,16.0528556 19.8172444,16.1038556 19.8688111,16.1882889 Z" id="Combined-Shape"></path>
                    </g>
                </g>
            </g>
        </g>
    </g>
</svg>