<?xml version="1.0" encoding="UTF-8"?>
<svg width="30px" height="30px" viewBox="0 0 30 30" version="1.1" xmlns="http://www.w3.org/2000/svg" xmlns:xlink="http://www.w3.org/1999/xlink">
    <!-- Generator: Sketch 52.5 (67469) - http://www.bohemiancoding.com/sketch -->
    <title>мой круг_White</title>
    <desc>Created with Sketch.</desc>
    <g id="Page-1" stroke="none" stroke-width="1" fill="none" fill-rule="evenodd">
        <g id="iPad" transform="translate(-104.000000, -698.000000)" fill="#FFFFFF">
            <g id="Group">
                <g id="соцсети" transform="translate(50.000000, 697.000000)">
                    <g id="мой-круг" transform="translate(54.000000, 1.000000)">
                        <path d="M0,15 C0,6.71572834 6.71572834,0 15,0 C23.2842717,0 30,6.71572834 30,15 C30,23.2842717 23.2842717,30 15,30 C6.71572834,30 0,23.2842717 0,15 Z M18.1111111,9 L15,13.9709706 L11.8888889,9 L8,9 L8,22 L11.5,22 L11.5,14.3529412 L14.2222222,18.9411765 L15,18.9411765 L15.7777778,18.9411765 L18.5,14.3529412 L18.5,22 L22,22 L22,9 L18.1111111,9 Z" id="Combined-Shape"></path>
                    </g>
                </g>
            </g>
        </g>
    </g>
</svg>