<?xml version="1.0" encoding="UTF-8"?>
<svg width="30px" height="30px" viewBox="0 0 30 30" version="1.1" xmlns="http://www.w3.org/2000/svg" xmlns:xlink="http://www.w3.org/1999/xlink">
    <!-- Generator: Sketch 52.5 (67469) - http://www.bohemiancoding.com/sketch -->
    <title>Skype_White</title>
    <desc>Created with Sketch.</desc>
    <g id="Page-1" stroke="none" stroke-width="1" fill="none" fill-rule="evenodd">
        <g id="iPad" transform="translate(-378.000000, -697.000000)" fill="#FFFFFF">
            <g id="Group">
                <g id="соцсети" transform="translate(50.000000, 697.000000)">
                    <g id="Skype" transform="translate(328.000000, 0.000000)">
                        <path d="M15,30 C6.71572875,30 0,23.2842712 0,15 C0,6.71572875 6.71572875,0 15,0 C23.2842712,0 30,6.71572875 30,15 C30,23.2842712 23.2842712,30 15,30 Z M22.5399812,16.6984872 C22.6556914,16.1773025 22.7158984,15.6375703 22.7158984,15.0830001 C22.7158984,10.9283603 19.3000941,7.55920709 15.084666,7.55920709 C14.6406397,7.55920709 14.20508,7.59722947 13.7798683,7.66956471 C13.0978363,7.24575436 12.2906867,7 11.4261524,7 C8.98118532,7 7,8.95305164 7,11.3642265 C7,12.169188 7.22201317,12.9222164 7.60771402,13.5713789 C7.5070555,14.0591781 7.45343368,14.5655248 7.45343368,15.0830001 C7.45343368,19.2394946 10.8701787,22.6077204 15.084666,22.6077204 C15.5625588,22.6077204 16.0291627,22.5641338 16.4825964,22.4815974 C17.1063029,22.8117429 17.8174976,23 18.5747883,23 C21.0188147,23 23,21.046021 23,18.6367009 C23,17.9402423 22.8344309,17.2827334 22.5399812,16.6984872 Z" id="Combined-Shape"></path>
                        <path d="M18.9990593,18.6793601 C18.6462841,19.1727236 18.1251176,19.5622211 17.4477893,19.8385788 C16.7789276,20.1130818 15.9774224,20.2531154 15.0639699,20.2531154 C13.9680151,20.2531154 13.0489182,20.0630035 12.3311383,19.6874167 C11.8184384,19.4147684 11.3960489,19.0456732 11.0752587,18.58755 C10.7507056,18.127572 10.5870179,17.6703762 10.5870179,17.2280183 C10.5870179,16.9535153 10.6942615,16.7142526 10.9049859,16.5185765 C11.1138288,16.3238277 11.3819379,16.2264534 11.7017874,16.2264534 C11.9633114,16.2264534 12.1900282,16.3034255 12.3734713,16.4564424 C12.5493885,16.603895 12.6999059,16.8218281 12.8212606,17.1009679 C12.9567262,17.4070017 13.1034807,17.6648119 13.2587018,17.8660523 C13.4092192,18.0626558 13.6246472,18.2268011 13.8993415,18.3557063 C14.1759172,18.483684 14.5493885,18.550455 15.0075259,18.550455 C15.6387582,18.550455 16.1561618,18.416913 16.5446849,18.1553933 C16.925682,17.9003652 17.1100659,17.5924767 17.1100659,17.2159624 C17.1100659,16.9201298 17.0131703,16.6864313 16.8156162,16.5028111 C16.6067733,16.3117719 16.3330198,16.1633919 16.0009407,16.0595259 C15.65381,15.9538051 15.1834431,15.8378833 14.6011289,15.7173245 C13.8080903,15.550397 13.1354657,15.3528662 12.6011289,15.1275141 C12.0536218,14.8984524 11.6124177,14.5803628 11.289746,14.182519 C10.9623706,13.7772561 10.7958608,13.269982 10.7958608,12.6736799 C10.7958608,12.1061265 10.9698965,11.5932881 11.3142051,11.1518576 C11.6547507,10.7132093 12.1533396,10.3700806 12.7958608,10.1373095 C13.4289746,9.90639309 14.1815616,9.78954385 15.0348071,9.78954385 C15.7158984,9.78954385 16.3151458,9.86744334 16.8156162,10.0213876 C17.3189087,10.1753318 17.7422389,10.3830638 18.0752587,10.6399467 C18.4111007,10.8996117 18.6613358,11.175042 18.8174976,11.4625283 C18.9755409,11.7527966 19.056444,12.0412102 19.056444,12.3203501 C19.056444,12.5892888 18.9510818,12.8341158 18.7431797,13.0464847 C18.5343368,13.2616357 18.2699906,13.3701385 17.9595484,13.3701385 C17.6773283,13.3701385 17.4553151,13.3015128 17.3029163,13.1679708 C17.1599247,13.0427752 17.0112888,12.8480264 16.8466604,12.5698139 C16.6566322,12.213702 16.4261524,11.9327074 16.1618062,11.7342491 C15.9049859,11.5413551 15.476952,11.4449081 14.8871119,11.4449081 C14.3414864,11.4449081 13.8955786,11.5524836 13.565381,11.7667072 C13.247413,11.9716571 13.0921919,12.2081377 13.0921919,12.4882049 C13.0921919,12.6588419 13.1420508,12.8025851 13.2455315,12.9249986 C13.3527752,13.0566858 13.5061148,13.1698255 13.6999059,13.2662725 C13.9002822,13.3655017 14.1072437,13.4452559 14.3142051,13.5008984 C14.5258702,13.559323 14.8814675,13.6455689 15.3697084,13.7568539 C15.9877705,13.8866864 16.5550329,14.034139 17.056444,14.1927201 C17.565381,14.3522286 18.0037629,14.5488321 18.3631232,14.7797484 C18.7281279,15.0143743 19.0169332,15.3148438 19.2229539,15.6746653 C19.4289746,16.0372689 19.533396,16.4824089 19.533396,17.0008115 C19.533396,17.6202979 19.3527752,18.1850693 18.9990593,18.6793601 L18.9990593,18.6793601 L18.9990593,18.6793601 Z" id="s"></path>
                    </g>
                </g>
            </g>
        </g>
    </g>
</svg>